<svg width="35" height="40" viewBox="0 0 35 40" fill="none" xmlns="http://www.w3.org/2000/svg">
<path d="M34.2656 11.7715C35.2422 10.7949 35.2422 9.20898 34.2656 8.23242L26.7656 0.732422C25.7891 -0.244141 24.2031 -0.244141 23.2266 0.732422C22.25 1.70898 22.25 3.29492 23.2266 4.27148L26.4609 7.50586H2.5C1.11719 7.50586 0 8.62304 0 10.0059C0 11.3887 1.11719 12.5059 2.5 12.5059H26.4609L23.2266 15.7402C22.25 16.7168 22.25 18.3027 23.2266 19.2793C24.2031 20.2559 25.7891 20.2559 26.7656 19.2793L34.2656 11.7793V11.7715ZM8.22656 39.2715C9.20312 40.248 10.7891 40.248 11.7656 39.2715C12.7422 38.2949 12.7422 36.709 11.7656 35.7324L8.53906 32.5058H32.5C33.8828 32.5058 35 31.3887 35 30.0058C35 28.623 33.8828 27.5058 32.5 27.5058H8.53906L11.7734 24.2715C12.75 23.2949 12.75 21.709 11.7734 20.7324C10.7969 19.7559 9.21094 19.7559 8.23438 20.7324L0.734375 28.2324C-0.242188 29.209 -0.242188 30.7949 0.734375 31.7715L8.23438 39.2715H8.22656Z" fill="black"/>
</svg>
