<svg width="22" height="23" viewBox="0 0 22 23" fill="none" xmlns="http://www.w3.org/2000/svg">
<path d="M7.08523 1.2247C6.75439 0.425518 5.88216 0.000146091 5.04861 0.22787L1.26752 1.25908C0.519899 1.46532 0 2.14419 0 2.9176C0 13.5476 8.61915 22.1667 19.2492 22.1667C20.0226 22.1667 20.7014 21.6468 20.9077 20.8992L21.9389 17.1181C22.1666 16.2846 21.7412 15.4124 20.942 15.0815L16.8172 13.3628C16.1169 13.0707 15.3048 13.2726 14.8279 13.8613L13.092 15.9795C10.0671 14.5487 7.61802 12.0996 6.18723 9.07475L8.30549 7.34318C8.89414 6.86195 9.09608 6.05418 8.80391 5.35382L7.08523 1.229V1.2247Z" fill="white"/>
</svg>
