<svg width="33" height="32" viewBox="0 0 33 32" fill="none" xmlns="http://www.w3.org/2000/svg">
<path d="M32.4922 16.0593C32.4922 7.22183 25.3297 0.0593262 16.4922 0.0593262C7.65469 0.0593262 0.492188 7.22183 0.492188 16.0593C0.492188 23.5593 5.66094 29.8593 12.6297 31.5906V20.9468H9.32969V16.0593H12.6297V13.9531C12.6297 8.50933 15.0922 5.98433 20.4422 5.98433C21.4547 5.98433 23.2047 6.18433 23.9234 6.38433V10.8093C23.5484 10.7718 22.8922 10.7468 22.0734 10.7468C19.4484 10.7468 18.4359 11.7406 18.4359 14.3218V16.0593H23.6609L22.7609 20.9468H18.4297V31.9406C26.3547 30.9843 32.4922 24.2406 32.4922 16.0593Z" fill="white"/>
</svg>
