<svg width="29" height="28" viewBox="0 0 29 28" fill="none" xmlns="http://www.w3.org/2000/svg">
<path d="M14.5031 6.81868C10.5281 6.81868 7.32187 10.0249 7.32187 13.9999C7.32187 17.9749 10.5281 21.1812 14.5031 21.1812C18.4781 21.1812 21.6844 17.9749 21.6844 13.9999C21.6844 10.0249 18.4781 6.81868 14.5031 6.81868ZM14.5031 18.6687C11.9344 18.6687 9.83437 16.5749 9.83437 13.9999C9.83437 11.4249 11.9281 9.33118 14.5031 9.33118C17.0781 9.33118 19.1719 11.4249 19.1719 13.9999C19.1719 16.5749 17.0719 18.6687 14.5031 18.6687ZM23.6531 6.52493C23.6531 7.45618 22.9031 8.19993 21.9781 8.19993C21.0469 8.19993 20.3031 7.44993 20.3031 6.52493C20.3031 5.59993 21.0531 4.84993 21.9781 4.84993C22.9031 4.84993 23.6531 5.59993 23.6531 6.52493ZM28.4094 8.22493C28.3031 5.98118 27.7906 3.99368 26.1469 2.35618C24.5094 0.718677 22.5219 0.206177 20.2781 0.0936768C17.9656 -0.0375732 11.0344 -0.0375732 8.72188 0.0936768C6.48438 0.199927 4.49688 0.712427 2.85313 2.34993C1.20938 3.98743 0.703125 5.97493 0.590625 8.21868C0.459375 10.5312 0.459375 17.4624 0.590625 19.7749C0.696875 22.0187 1.20938 24.0062 2.85313 25.6437C4.49688 27.2812 6.47813 27.7937 8.72188 27.9062C11.0344 28.0374 17.9656 28.0374 20.2781 27.9062C22.5219 27.7999 24.5094 27.2874 26.1469 25.6437C27.7844 24.0062 28.2969 22.0187 28.4094 19.7749C28.5406 17.4624 28.5406 10.5374 28.4094 8.22493ZM25.4219 22.2562C24.9344 23.4812 23.9906 24.4249 22.7594 24.9187C20.9156 25.6499 16.5406 25.4812 14.5031 25.4812C12.4656 25.4812 8.08437 25.6437 6.24687 24.9187C5.02187 24.4312 4.07813 23.4874 3.58438 22.2562C2.85313 20.4124 3.02188 16.0374 3.02188 13.9999C3.02188 11.9624 2.85938 7.58118 3.58438 5.74368C4.07188 4.51868 5.01562 3.57493 6.24687 3.08118C8.09062 2.34993 12.4656 2.51868 14.5031 2.51868C16.5406 2.51868 20.9219 2.35618 22.7594 3.08118C23.9844 3.56868 24.9281 4.51243 25.4219 5.74368C26.1531 7.58743 25.9844 11.9624 25.9844 13.9999C25.9844 16.0374 26.1531 20.4187 25.4219 22.2562Z" fill="white"/>
</svg>
