<svg width="29" height="28" viewBox="0 0 29 28" fill="none" xmlns="http://www.w3.org/2000/svg">
<path d="M24.2984 4.06875C21.6797 1.44375 18.1922 0 14.4859 0C6.83594 0 0.610937 6.225 0.610937 13.875C0.610937 16.3187 1.24844 18.7062 2.46094 20.8125L0.492188 28L7.84844 26.0688C9.87344 27.175 12.1547 27.7563 14.4797 27.7563H14.4859C22.1297 27.7563 28.4922 21.5313 28.4922 13.8813C28.4922 10.175 26.9172 6.69375 24.2984 4.06875ZM14.4859 25.4188C12.4109 25.4188 10.3797 24.8625 8.61094 23.8125L8.19219 23.5625L3.82969 24.7062L4.99219 20.45L4.71719 20.0125C3.56094 18.175 2.95469 16.0563 2.95469 13.875C2.95469 7.51875 8.12969 2.34375 14.4922 2.34375C17.5734 2.34375 20.4672 3.54375 22.6422 5.725C24.8172 7.90625 26.1547 10.8 26.1484 13.8813C26.1484 20.2438 20.8422 25.4188 14.4859 25.4188ZM20.8109 16.7812C20.4672 16.6063 18.7609 15.7687 18.4422 15.6562C18.1234 15.5375 17.8922 15.4812 17.6609 15.8312C17.4297 16.1812 16.7672 16.9563 16.5609 17.1938C16.3609 17.425 16.1547 17.4562 15.8109 17.2812C13.7734 16.2625 12.4359 15.4625 11.0922 13.1562C10.7359 12.5437 11.4484 12.5875 12.1109 11.2625C12.2234 11.0312 12.1672 10.8312 12.0797 10.6562C11.9922 10.4813 11.2984 8.775 11.0109 8.08125C10.7297 7.40625 10.4422 7.5 10.2297 7.4875C10.0297 7.475 9.79844 7.475 9.56719 7.475C9.33594 7.475 8.96094 7.5625 8.64219 7.90625C8.32344 8.25625 7.42969 9.09375 7.42969 10.8C7.42969 12.5063 8.67344 14.1563 8.84219 14.3875C9.01719 14.6188 11.2859 18.1187 14.7672 19.625C16.9672 20.575 17.8297 20.6562 18.9297 20.4937C19.5984 20.3937 20.9797 19.6562 21.2672 18.8438C21.5547 18.0312 21.5547 17.3375 21.4672 17.1938C21.3859 17.0375 21.1547 16.95 20.8109 16.7812Z" fill="white"/>
</svg>
